<?xml version="1.0" encoding="utf-8"?>
<!-- Generator: Adobe Illustrator 26.4.1, SVG Export Plug-In . SVG Version: 6.00 Build 0)  -->
<svg version="1.1" id="Layer_1" xmlns="http://www.w3.org/2000/svg" xmlns:xlink="http://www.w3.org/1999/xlink" x="0px" y="0px"
	 viewBox="0 0 100 100" style="enable-background:new 0 0 100 100;" xml:space="preserve">
<style type="text/css">
	.st0{fill:#FFFFFF;}
	.st1{fill:none;stroke:#707070;}
	.st2{enable-background:new    ;}
	.st3{fill:#6C6C1D;}
</style>
<g>
	<g id="Ellipse_2">
		<circle class="st0" cx="50" cy="50" r="50"/>
		<circle class="st1" cx="50" cy="50" r="49"/>
	</g>
	<g class="st2">
		<path class="st3" d="M75.3,84.8l-21.8-8.9L21.7,36.2l3.4-6.9l1.4-1.2l3.9-3.3l1.5-1.2l7.3-2L71,61.3L75.3,84.8z M56.8,68.8
			L26.4,30.9l-2.1,4.5l29.6,37C54.1,70.7,55.1,69.5,56.8,68.8z M61.6,63.8L31.7,26.4l-3.9,3.3L57.7,67
			C58.5,65.3,59.8,64.2,61.6,63.8z M63.6,63.2c0.9-1.5,2-2.2,3.3-2.2c0.2,0,0.4,0,0.7,0L37.9,24l-4.7,1.2L63.6,63.2z M70.6,71.2
			L69,63c-0.7-0.4-1.2-0.7-1.7-0.7c-1.4,0-2.5,1-3.3,2.8c-0.6-0.2-1-0.3-1.3-0.3c-1,0-1.9,0.4-2.7,1.3c-0.9,0.8-1.3,1.7-1.3,2.6
			c0,0.2,0,0.5,0,0.9c-2.3,0.5-3.4,1.5-3.4,3.1c0,0.4,0.1,0.8,0.3,1.4l7.5,3.2C64.1,73.5,66.6,71.4,70.6,71.2z"/>
	</g>
</g>
</svg>
