<?xml version="1.0" encoding="utf-8"?>
<!-- Generator: Adobe Illustrator 26.4.1, SVG Export Plug-In . SVG Version: 6.00 Build 0)  -->
<svg version="1.1" id="Layer_1" xmlns="http://www.w3.org/2000/svg" xmlns:xlink="http://www.w3.org/1999/xlink" x="0px" y="0px"
	 viewBox="0 0 747 768" style="enable-background:new 0 0 747 768;" xml:space="preserve">
<g>
	<path d="M519.4,513.8c0,31.2-27.4,60.3-105,60.3c-72.9,0-101.2-25.7-101.2-56.9c0-24.4,20.2-40,40.9-43.4
		c-11.4-6.3-18.5-15.6-18.5-29.9c0-14.8,8.9-26.6,21.9-35.8c-21.5-12.6-34.1-33.7-34.1-59.4c0-43,34.1-72.9,87.7-72.9
		c15.6,0,28.2,2.5,39.6,6.7h70.8l-2.5,18.1h-43.4c11.8,10.5,21.9,27,21.9,48.5c0,41.3-34.6,72.5-86.4,72.5c-14.3,0-27-2.1-38.4-6.3
		c-9.3,6.7-15.2,14.3-15.2,24c0,12.6,9.3,22.8,31.6,22.8h58.6C497.5,462,519.4,484.3,519.4,513.8z M495.8,515.5
		c0-18.1-13.1-33.3-51.8-33.3h-56.5c-37.5,0-51,16.9-51,33.3c0,23.6,22.8,40,76.3,40h6.3C473,555.6,495.8,537,495.8,515.5z
		 M347.4,348.6c0,32.5,25.3,54.8,63.2,54.8c37.9,0,62.8-22.3,62.8-54.8s-24.9-54.8-62.8-54.8S347.4,316.1,347.4,348.6z"/>
	<path d="M556.4,478.8L553,456c30.8,12.2,52.7,16,75.9,16c36.3,0,59-13.1,59-36.3c0-21.5-17.3-33.7-61.1-45.5
		c-53.1-14.3-73.3-30.8-73.3-62c0-32,29.5-52.7,78.8-52.7c31.2,0,54,8.4,67.4,12.6l3,22.3c-27.8-11-47.6-15.6-70.4-15.6
		c-33.7,0-54.8,12.2-54.8,32.5s14.8,30.3,59,42.6c54.4,14.3,75.5,33.3,75.5,64.9c0,34.6-30.8,56.5-80.9,56.5
		C597.7,491.5,572.4,483.5,556.4,478.8z"/>
	<path d="M35,485.2h24c0-100.3,21.1-139.5,78.4-144.2C80.1,336.8,59,300.1,59,205.3H35V485.2z M262.6,205.3h-24
		c0,94.8-21.1,131.5-78.4,135.7c57.3,4.6,78.4,43.8,78.4,144.2h24V205.3z"/>
</g>
</svg>
