<?xml version="1.0" encoding="utf-8"?>
<!-- Generator: Adobe Illustrator 26.4.1, SVG Export Plug-In . SVG Version: 6.00 Build 0)  -->
<svg version="1.1" id="Layer_1" xmlns="http://www.w3.org/2000/svg" xmlns:xlink="http://www.w3.org/1999/xlink" x="0px" y="0px"
	 viewBox="0 0 1920 768" style="enable-background:new 0 0 1920 768;" xml:space="preserve">
<g>
	<path d="M325,383.6c0-66.2,44.3-107.9,102-107.9c58.2,0,102,41.7,102,107.9s-43.8,107.9-102,107.9C369.3,491.5,325,449.8,325,383.6
		z M504.6,383.6c0-55.2-32.9-88.1-77.6-88.1s-78,32.9-78,88.1s33.3,88.5,78,88.5S504.6,438.8,504.6,383.6z"/>
	<path d="M760,279.5v205.7h-22.8v-38.4c-12.2,24.9-39.6,44.7-75.9,44.7c-45.9,0-74.6-29.5-74.6-75.9V283.3l24-3.8v132.4
		c0,37.5,20.7,59.9,57.7,59.9c36.7,0,67.4-32,67.4-73.8V283.3L760,279.5z"/>
	<path d="M937.9,276.5v23.6c-5.5-0.8-8.9-1.7-14.8-1.7c-29.9,0-65.8,20.7-65.8,84.3v102.4h-24V283.3l23.2-3.8v46.4
		c9.7-28.2,33.3-49.7,72.9-49.7C932,276.1,934.9,276.1,937.9,276.5z"/>
	<path d="M1163.4,513.8c0,31.2-27.4,60.3-105,60.3c-72.9,0-101.2-25.7-101.2-56.9c0-24.4,20.2-40,40.9-43.4
		c-11.4-6.3-18.5-15.6-18.5-29.9c0-14.8,8.9-26.6,21.9-35.8c-21.5-12.6-34.1-33.7-34.1-59.4c0-43,34.1-72.9,87.7-72.9
		c15.6,0,28.2,2.5,39.6,6.7h70.8l-2.5,18.1h-43.4c11.8,10.5,21.9,27,21.9,48.5c0,41.3-34.6,72.5-86.4,72.5c-14.3,0-27-2.1-38.4-6.3
		c-9.3,6.7-15.2,14.3-15.2,24c0,12.6,9.3,22.8,31.6,22.8h58.6C1141.5,462,1163.4,484.3,1163.4,513.8z M1139.8,515.5
		c0-18.1-13.1-33.3-51.8-33.3h-56.5c-37.5,0-51,16.9-51,33.3c0,23.6,22.8,40,76.3,40h6.3C1117,555.6,1139.8,537,1139.8,515.5z
		 M991.4,348.6c0,32.5,25.3,54.8,63.2,54.8c37.9,0,62.8-22.3,62.8-54.8s-24.9-54.8-62.8-54.8S991.4,316.1,991.4,348.6z"/>
	<path d="M1212,197.7l24-3.8v291.3h-24V197.7z"/>
	<path d="M1373,357.9c26.6,0,48.1,9.7,67,24.9v-24.9c0-41.7-22.3-62.8-61.5-62.8c-29.1,0-53.5,10.1-67.9,15.6l3-22.8
		c24.4-8,45.1-12.2,67.9-12.2c52.7,0,82.2,28.7,82.2,82.6v126.9h-22.8v-32c-11.8,23.6-36.7,38.4-69.5,38.4
		c-45.1,0-74.2-27.4-74.2-67.4S1326.7,357.9,1373,357.9z M1376.4,472.9c36.7,0,63.6-26.1,63.6-65.8v-5.9
		c-19.8-16.9-40.9-24.4-63.2-24.4c-34.1,0-55.2,18.1-55.2,47.2S1342.7,472.9,1376.4,472.9z"/>
	<path d="M1525.2,478.8l-3.4-22.8c30.8,12.2,52.7,16,75.9,16c36.3,0,59-13.1,59-36.3c0-21.5-17.3-33.7-61.1-45.5
		c-53.1-14.3-73.3-30.8-73.3-62c0-32,29.5-52.7,78.8-52.7c31.2,0,54,8.4,67.4,12.6l3,22.3c-27.8-11-47.6-15.6-70.4-15.6
		c-33.7,0-54.8,12.2-54.8,32.5s14.8,30.3,59,42.6c54.4,14.3,75.5,33.3,75.5,64.9c0,34.6-30.8,56.5-80.9,56.5
		C1566.5,491.5,1541.2,483.5,1525.2,478.8z"/>
	<path d="M1730.5,478.8l-3.4-22.8c30.8,12.2,52.7,16,75.9,16c36.3,0,59-13.1,59-36.3c0-21.5-17.3-33.7-61.1-45.5
		c-53.1-14.3-73.3-30.8-73.3-62c0-32,29.5-52.7,78.8-52.7c31.2,0,54,8.4,67.4,12.6l3,22.3c-27.8-11-47.6-15.6-70.4-15.6
		c-33.7,0-54.8,12.2-54.8,32.5s14.8,30.3,59,42.6c54.4,14.3,75.5,33.3,75.5,64.9c0,34.6-30.8,56.5-80.9,56.5
		C1771.8,491.5,1746.5,483.5,1730.5,478.8z"/>
	<path d="M35,485.2h24c0-100.3,21.1-139.5,78.4-144.2C80.1,336.8,59,300.1,59,205.3H35V485.2z M262.6,205.3h-24
		c0,94.8-21.1,131.5-78.4,135.7c57.3,4.6,78.4,43.8,78.4,144.2h24V205.3z"/>
</g>
</svg>
